User Type,Username,Date,Text
,Peerboy,2012-02-10T23:51Z,Nice upload.super xxx girls....:)
,pimpmobile,2012-02-12T12:22Z,Sweetness!
,sulfurboy,2012-02-12T16:09Z,ee3
,WontEverSeed,2012-02-14T00:47Z,ty
,fafemkft,2012-02-17T16:13Z,thnx
,codegurru,2012-02-17T18:10Z,"General
Complete name                            : jiggly-innyouth.avi
Format                                   : AVI
Format/Info                              : Audio Video Interleave
File size                                : 700 MiB
Duration                                 : 1h 35mn
Overall bit rate mode                    : Variable
Overall bit rate                         : 1 027 Kbps
Writing application                      : VirtualDubMod 1.5.10.2 (build 2540/release)
Writing library                          : VirtualDubMod build 2540/release

Video
ID                                       : 0
Format                                   : MPEG-4 Visual
Format profile                           : Advanced Simple@L5
Format settings, BVOP                    : 3
Format settings, QPel                    : No
Format settings, GMC                     : No warppoints
Format settings, Matrix                  : Default (MPEG)
Codec ID                                 : XVID
Codec ID/Hint                            : XviD
Duration                                 : 1h 35mn
Bit rate                                 : 888 Kbps
Width                                    : 576 pixels
Height                                   : 320 pixels
Display aspect ratio                     : 16:9
Frame rate                               : 23.976 fps
Color space                              : YUV
Chroma subsampling                       : 4:2:0
Bit depth                                : 8 bits
Scan type                                : Progressive
Compression mode                         : Lossy
Bits/(Pixel*Frame)                       : 0.201
Stream size                              : 605 MiB (86%)
Writing library                          : XviD 1.2.1 (UTC 2008-12-04)

Audio
ID                                       : 1
Format                                   : MPEG Audio
Format version                           : Version 1
Format profile                           : Layer 3
Mode                                     : Joint stereo
Mode extension                           : MS Stereo
Codec ID                                 : 55
Codec ID/Hint                            : MP3
Duration                                 : 1h 35mn
Bit rate mode                            : Variable
Bit rate                                 : 128 Kbps
Channel(s)                               : 2 channels
Sampling rate                            : 48.0 KHz
Compression mode                         : Lossy
Stream size                              : 86.7 MiB (12%)
Alignment                                : Aligned on interleaves
Interleave, duration                     : 24 ms (0.58 video frame)
Interleave, preload duration             : 528 ms
Writing library                          : LAME3.90.
Encoding settings                        : -m j -V 4 -q 2 -lowpass 17.6 --abr 128

Very Good... Thank You!"
,zeboz2,2012-02-22T02:10Z,thanx
,realawesomedude,2012-02-28T11:43Z,is she dragon born?
,DECAD3NCED,2012-03-28T18:57Z,"dude, all your image links are broken, wtf"
,lobo345,2012-03-31T22:32Z,Screens dont work.
,download520,2012-04-03T05:50Z,http://www.excaliburfilms.com/Gallery/3004578D1.htm
,download520,2012-04-03T05:51Z,http://www.excaliburfilms.com/Gallery/3004578D1.htm    here are the screens
,kkeenn123,2012-04-16T02:26Z,"""slutty as they cum""
lol"
,Renzoruken,2012-04-24T02:04Z,"recieved a letter from internet provider after downloading this one telling me to remove the files or further action may be taken i,e termination of service, receiving a large fine, i did forget to turn my peer blocker on while downloading might be why"
,Renzoruken,2012-04-24T02:06Z,received a letter from internet provider shortly after downloading this one telling me to remove files or further action such as termination of service and large fines. 
,Renzoruken,2012-04-24T02:06Z,sorry about that doulbe post it looked as thou my first comment hadnt gone through
,kidrockbc,2012-04-29T12:40Z,thanks
,babybluetits24,2012-05-13T16:03Z,"Not Found

The requested URL /IMG/viewer.php was not found on this server.

Additionally, a 404 Not Found error was encountered while trying to use an ErrorDocument to handle the request.
Apache/2.2.22 (Unix) mod_ssl/2.2.22 OpenSSL/0.9.8e-fips-rhel5 mod_auth_passthrough/2.1 mod_bwlimited/1.4 FrontPage/5.0.2.2635 Server at www.seedimage.com Port 80"
,tigrebastos,2012-05-21T18:58Z,works like a charm
